<?xml version="1.0" encoding="utf-8"?>
<!-- Generator: Adobe Illustrator 24.1.2, SVG Export Plug-In . SVG Version: 6.00 Build 0)  -->
<svg version="1.1" id="Layer_1" xmlns="http://www.w3.org/2000/svg" xmlns:xlink="http://www.w3.org/1999/xlink" x="0px" y="0px"
	 viewBox="0 0 16 16" style="enable-background:new 0 0 16 16;" xml:space="preserve">
<style type="text/css">
	.st0{fill:#FFFFFF;}
</style>
<path class="st0" d="M6.5,13c1.4,0,2.7-0.4,3.8-1.3h0c0,0,0.1,0.1,0.1,0.1l3.9,3.8c0.4,0.4,1,0.4,1.4,0s0.4-1,0-1.4l-3.8-3.9
	c0,0-0.1-0.1-0.1-0.1C12.6,9.2,13,7.9,13,6.5C13,2.9,10.1,0,6.5,0C2.9,0,0,2.9,0,6.5S2.9,13,6.5,13z M6.5,4.5c1.7-1.7,5.8,1.3,0,5
	C0.7,5.7,4.8,2.8,6.5,4.5z"/>
</svg>
