<?xml version="1.0" encoding="utf-8"?>
<!-- Generator: Adobe Illustrator 24.1.2, SVG Export Plug-In . SVG Version: 6.00 Build 0)  -->
<svg version="1.1" id="Layer_1" xmlns="http://www.w3.org/2000/svg" xmlns:xlink="http://www.w3.org/1999/xlink" x="0px" y="0px"
	 viewBox="0 0 16 16" style="enable-background:new 0 0 16 16;" xml:space="preserve">
<style type="text/css">
	.st0{fill:#FFFFFF;}
</style>
<path class="st0" d="M6.5,4.5c1.7-1.7,5.8,1.3,0,5C0.7,5.7,4.8,2.8,6.5,4.5z"/>
<path class="st0" d="M13,6.5c0,1.4-0.4,2.7-1.3,3.8c0,0,0.1,0.1,0.1,0.1l3.8,3.9c0.4,0.4,0.4,1,0,1.4s-1,0.4-1.4,0l-3.9-3.8
	c0,0-0.1-0.1-0.1-0.1h0c-2.9,2.1-7,1.5-9.1-1.4s-1.5-7,1.4-9.1s7-1.5,9.1,1.4C12.6,3.8,13,5.1,13,6.5z M6.5,12c3,0,5.5-2.5,5.5-5.5
	S9.5,1,6.5,1l0,0C3.5,1,1,3.5,1,6.5S3.5,12,6.5,12z"/>
</svg>
